<svg id="eb2IGSz1jay1" xmlns="http://www.w3.org/2000/svg" xmlns:xlink="http://www.w3.org/1999/xlink" viewBox="0 0 1057.700000 784.980000" shape-rendering="geometricPrecision" text-rendering="geometricPrecision"><style><![CDATA[#eb2IGSz1jay31_to {animation: eb2IGSz1jay31_to__to 3000ms linear 1 normal forwards}@keyframes eb2IGSz1jay31_to__to { 0% {transform: translate(-71.150000px,-57.510000px)} 40% {transform: translate(-52.902277px,-173.221910px)} 100% {transform: translate(-52.902277px,-173.221910px)}}]]></style><defs><linearGradient id="eb2IGSz1jay41-fill" x1="534.380000" y1="800.560000" x2="534.380000" y2="118" spreadMethod="pad" gradientUnits="userSpaceOnUse"><stop id="eb2IGSz1jay41-fill-0" offset="0%" stop-color="rgba(128,128,128,0.25)"/><stop id="eb2IGSz1jay41-fill-1" offset="54%" stop-color="rgba(128,128,128,0.12)"/><stop id="eb2IGSz1jay41-fill-2" offset="100%" stop-color="rgba(128,128,128,0.1)"/></linearGradient></defs><path id="eb2IGSz1jay2" d="M280.880000,172.940000C275.400000,179.590000,273.290000,188.940000,270.930000,197.730000C251.930000,268.570000,205.110000,325.550000,151.790000,366.250000C129.210000,383.490000,101.720000,406.610000,106.660000,437.520000C109.320000,454.120000,120.990000,466.340000,129.660000,479.860000C147.850000,508.170000,153.750000,546.650000,145.080000,580.540000C135.220000,619.100000,107.660000,655.080000,116.190000,694.070000C121.450000,718.070000,139.310000,735.150000,156.480000,749.830000Q196.660000,784.160000,239.400000,814.150000C258.500000,827.550000,278.820000,840.590000,301.080000,842.290000C320.680000,843.790000,339.880000,836.340000,358.490000,828.990000C374.750000,822.560000,391.420000,815.870000,404.550000,802.990000C413.120000,794.580000,419.950000,783.730000,429.470000,776.850000C451.830000,760.690000,480.550000,770.930000,506.190000,777.850000C566.690000,794.090000,631.440000,788.160000,689.010000,761.110000C777.320000,719.610000,844.630000,632.460000,931.010000,585.700000C968.150000,565.590000,1008.550000,553.110000,1042.940000,527.210000C1062.314790,512.463359,1078.964981,494.445957,1092.140000,473.970000C1118.140000,433.860000,1132.200000,382.720000,1128.140000,332.660000C1124.080000,282.600000,1101.330000,234.360000,1065.600000,206.100000C1027.350000,175.850000,979.040000,170.200000,935.520000,152.040000C890.580000,133.280000,850.600000,101.040000,806.090000,80.910000C733.143117,48.010919,649.227931,49.882073,577.820000,86C529.380000,110.500000,480.280000,167.660000,426.330000,172C387.890000,175,310.900000,136.520000,280.880000,172.940000Z" transform="matrix(1 0 0 1 -71.15000000000001 -57.51000000000000)" opacity="0.1" fill="rgb(108,99,255)" stroke="none" stroke-width="1"/><path id="eb2IGSz1jay3" d="M913.250000,505.830000C913.250000,505.830000,930.750000,540.180000,916.490000,558.970000C902.230000,577.760000,917.790000,628.970000,917.790000,628.970000" transform="matrix(1 0 0 1 -71.15000000000001 -57.51000000000000)" fill="none" stroke="rgb(108,99,255)" stroke-width="1" stroke-miterlimit="10"/><path id="eb2IGSz1jay4" d="M918.430000,495.140000C918.430000,501.760000,913.570000,507.140000,913.570000,507.140000C913.570000,507.140000,908.710000,501.770000,908.710000,495.140000C908.710000,488.510000,913.570000,483.140000,913.570000,483.140000C913.570000,483.140000,918.430000,488.520000,918.430000,495.140000Z" transform="matrix(1 0 0 1 -71.15000000000001 -57.51000000000000)" fill="rgb(108,99,255)" stroke="none" stroke-width="1"/><path id="eb2IGSz1jay5" d="M922.320000,505.830000C922.320000,505.830000,904.820000,540.180000,919.080000,558.970000C933.340000,577.760000,917.780000,628.970000,917.780000,628.970000" transform="matrix(1 0 0 1 -71.15000000000001 -57.51000000000000)" fill="none" stroke="rgb(108,99,255)" stroke-width="1" stroke-miterlimit="10"/><path id="eb2IGSz1jay6" d="M917.140000,495.140000C917.140000,501.760000,922,507.140000,922,507.140000C922,507.140000,926.860000,501.770000,926.860000,495.140000C926.860000,488.510000,922,483.140000,922,483.140000C922,483.140000,917.140000,488.520000,917.140000,495.140000Z" transform="matrix(1 0 0 1 -71.15000000000001 -57.51000000000000)" fill="rgb(108,99,255)" stroke="none" stroke-width="1"/><path id="eb2IGSz1jay7" d="M917.140000,495.140000C917.140000,501.760000,922,507.140000,922,507.140000C922,507.140000,926.860000,501.770000,926.860000,495.140000C926.860000,488.510000,922,483.140000,922,483.140000C922,483.140000,917.140000,488.520000,917.140000,495.140000Z" transform="matrix(1 0 0 1 -71.15000000000001 -57.51000000000000)" opacity="0.1" fill="rgb(0,0,0)" stroke="none" stroke-width="1"/><path id="eb2IGSz1jay8" d="M929.450000,505.830000C929.450000,505.830000,946.950000,540.180000,932.690000,558.970000C918.430000,577.760000,933.990000,628.970000,933.990000,628.970000" transform="matrix(1 0 0 1 -71.15000000000001 -57.51000000000000)" fill="none" stroke="rgb(108,99,255)" stroke-width="1" stroke-miterlimit="10"/><path id="eb2IGSz1jay9" d="M934.630000,495.140000C934.630000,501.760000,929.770000,507.140000,929.770000,507.140000C929.770000,507.140000,924.910000,501.770000,924.910000,495.140000C924.910000,488.510000,929.770000,483.140000,929.770000,483.140000C929.770000,483.140000,934.630000,488.520000,934.630000,495.140000Z" transform="matrix(1 0 0 1 -71.15000000000001 -57.51000000000000)" fill="rgb(108,99,255)" stroke="none" stroke-width="1"/><path id="eb2IGSz1jay10" d="M931.910000,522.660000C927.320000,527.430000,920.090000,527.930000,920.090000,527.930000C920.090000,527.930000,920.310000,520.690000,924.900000,515.930000C929.490000,511.170000,936.720000,510.660000,936.720000,510.660000C936.720000,510.660000,936.500000,517.890000,931.910000,522.660000Z" transform="matrix(1 0 0 1 -71.15000000000001 -57.51000000000000)" fill="rgb(108,99,255)" stroke="none" stroke-width="1"/><path id="eb2IGSz1jay11" d="M932.370000,546.360000C927.780000,551.130000,920.550000,551.630000,920.550000,551.630000C920.550000,551.630000,920.770000,544.390000,925.360000,539.630000C929.950000,534.870000,937.180000,534.360000,937.180000,534.360000C937.180000,534.360000,937,541.580000,932.370000,546.360000Z" transform="matrix(1 0 0 1 -71.15000000000001 -57.51000000000000)" fill="rgb(108,99,255)" stroke="none" stroke-width="1"/><path id="eb2IGSz1jay12" d="M907.470000,559.390000C911.810000,564.390000,911.660000,571.630000,911.660000,571.630000C911.660000,571.630000,904.470000,570.760000,900.130000,565.760000C895.790000,560.760000,895.940000,553.520000,895.940000,553.520000C895.940000,553.520000,903.130000,554.390000,907.470000,559.390000Z" transform="matrix(1 0 0 1 -71.15000000000001 -57.51000000000000)" fill="rgb(108,99,255)" stroke="none" stroke-width="1"/><path id="eb2IGSz1jay13" d="M911.500000,508.860000C917.020000,512.520000,918.810000,519.540000,918.810000,519.540000C918.810000,519.540000,911.650000,520.630000,906.130000,516.970000C900.610000,513.310000,898.820000,506.290000,898.820000,506.290000C898.820000,506.290000,906,505.200000,911.500000,508.860000Z" transform="matrix(1 0 0 1 -71.15000000000001 -57.51000000000000)" fill="rgb(108,99,255)" stroke="none" stroke-width="1"/><path id="eb2IGSz1jay14" d="M911.500000,508.860000C917.020000,512.520000,918.810000,519.540000,918.810000,519.540000C918.810000,519.540000,911.650000,520.630000,906.130000,516.970000C900.610000,513.310000,898.820000,506.290000,898.820000,506.290000C898.820000,506.290000,906,505.200000,911.500000,508.860000Z" transform="matrix(1 0 0 1 -71.15000000000001 -57.51000000000000)" opacity="0.1" fill="rgb(0,0,0)" stroke="none" stroke-width="1"/><path id="eb2IGSz1jay15" d="M938.520000,505.830000C938.520000,505.830000,921,540.180000,935.280000,559C949.560000,577.820000,933.980000,629,933.980000,629" transform="matrix(1 0 0 1 -71.15000000000001 -57.51000000000000)" fill="none" stroke="rgb(108,99,255)" stroke-width="1" stroke-miterlimit="10"/><path id="eb2IGSz1jay16" d="M933.340000,495.140000C933.340000,501.760000,938.200000,507.140000,938.200000,507.140000C938.200000,507.140000,943.060000,501.770000,943.060000,495.140000C943.060000,488.510000,938.200000,483.140000,938.200000,483.140000C938.200000,483.140000,933.340000,488.520000,933.340000,495.140000Z" transform="matrix(1 0 0 1 -71.15000000000001 -57.51000000000000)" fill="rgb(108,99,255)" stroke="none" stroke-width="1"/><path id="eb2IGSz1jay17" d="M933.340000,495.140000C933.340000,501.760000,938.200000,507.140000,938.200000,507.140000C938.200000,507.140000,943.060000,501.770000,943.060000,495.140000C943.060000,488.510000,938.200000,483.140000,938.200000,483.140000C938.200000,483.140000,933.340000,488.520000,933.340000,495.140000Z" transform="matrix(1 0 0 1 -71.15000000000001 -57.51000000000000)" opacity="0.1" fill="rgb(0,0,0)" stroke="none" stroke-width="1"/><path id="eb2IGSz1jay18" d="M934.740000,523.170000C930.090000,527.890000,929.740000,535.170000,929.740000,535.170000C929.740000,535.170000,936.970000,534.760000,941.620000,530.040000C946.270000,525.320000,946.620000,518.040000,946.620000,518.040000C946.620000,518.040000,939.380000,518.450000,934.740000,523.170000Z" transform="matrix(1 0 0 1 -71.15000000000001 -57.51000000000000)" fill="rgb(108,99,255)" stroke="none" stroke-width="1"/><path id="eb2IGSz1jay19" d="M934.740000,523.170000C930.090000,527.890000,929.740000,535.170000,929.740000,535.170000C929.740000,535.170000,936.970000,534.760000,941.620000,530.040000C946.270000,525.320000,946.620000,518.040000,946.620000,518.040000C946.620000,518.040000,939.380000,518.450000,934.740000,523.170000Z" transform="matrix(1 0 0 1 -71.15000000000001 -57.51000000000000)" opacity="0.1" fill="rgb(0,0,0)" stroke="none" stroke-width="1"/><path id="eb2IGSz1jay20" d="M943.850000,556C939.200000,560.720000,938.850000,568,938.850000,568C938.850000,568,946.080000,567.590000,950.730000,562.870000C955.380000,558.150000,955.730000,550.870000,955.730000,550.870000C955.730000,550.870000,948.500000,551.260000,943.850000,556Z" transform="matrix(1 0 0 1 -71.15000000000001 -57.51000000000000)" fill="rgb(108,99,255)" stroke="none" stroke-width="1"/><path id="eb2IGSz1jay21" d="M930.440000,548.770000C930.440000,548.770000,940.970000,532.170000,955.760000,531.770000" transform="matrix(1 0 0 1 -71.15000000000001 -57.51000000000000)" fill="none" stroke="rgb(108,99,255)" stroke-width="1" stroke-miterlimit="10"/><path id="eb2IGSz1jay22" d="M922.240000,538.740000C922.240000,538.740000,911.710000,522.140000,896.920000,521.740000" transform="matrix(1 0 0 1 -71.15000000000001 -57.51000000000000)" fill="none" stroke="rgb(108,99,255)" stroke-width="1" stroke-miterlimit="10"/><path id="eb2IGSz1jay23" d="M920.870000,562.440000C920.870000,562.440000,931.400000,545.840000,946.190000,545.440000" transform="matrix(1 0 0 1 -71.15000000000001 -57.51000000000000)" fill="none" stroke="rgb(108,99,255)" stroke-width="1" stroke-miterlimit="10"/><circle id="eb2IGSz1jay24" r="2.730000" transform="matrix(1 0 0 1 884.13000000000000 474.17000000000002)" fill="rgb(108,99,255)" stroke="none" stroke-width="1"/><circle id="eb2IGSz1jay25" r="2.730000" transform="matrix(1 0 0 1 826.02999999999997 464.37000000000000)" fill="rgb(108,99,255)" stroke="none" stroke-width="1"/><path id="eb2IGSz1jay26" d="M928.620000,567.910000C928.620000,567.910000,918.090000,551.310000,903.300000,550.910000" transform="matrix(1 0 0 1 -71.15000000000001 -57.51000000000000)" fill="none" stroke="rgb(108,99,255)" stroke-width="1" stroke-miterlimit="10"/><circle id="eb2IGSz1jay27" r="2.730000" transform="matrix(1 0 0 1 832.40999999999997 493.54000000000002)" fill="rgb(108,99,255)" stroke="none" stroke-width="1"/><circle id="eb2IGSz1jay28" r="2.730000" transform="matrix(1 0 0 1 875.24000000000001 488.06999999999999)" fill="rgb(108,99,255)" stroke="none" stroke-width="1"/><path id="eb2IGSz1jay29" d="M986.840000,609C986.840000,609,961.460000,603.920000,954.690000,597.150000C947.920000,590.380000,917.460000,578.570000,914.080000,587C910.700000,595.430000,868.390000,624.230000,897.160000,629.310000C925.930000,634.390000,964.850000,636.080000,973.310000,632.690000C981.770000,629.300000,986.840000,609,986.840000,609Z" transform="matrix(1 0 0 1 -71.15000000000001 -57.51000000000000)" fill="rgb(168,168,168)" stroke="none" stroke-width="1"/><path id="eb2IGSz1jay30" d="M897.150000,626.190000C925.920000,631.270000,964.840000,632.960000,973.300000,629.570000C979.740000,626.990000,984.220000,614.570000,985.990000,608.850000L986.840000,609.030000C986.840000,609.030000,981.760000,629.340000,973.300000,632.720000C964.840000,636.100000,925.920000,634.410000,897.150000,629.340000C888.850000,627.870000,886.470000,624.430000,887.370000,620.080000C888.080000,622.910000,891,625.100000,897.150000,626.190000Z" transform="matrix(1 0 0 1 -71.15000000000001 -57.51000000000000)" opacity="0.2" fill="rgb(0,0,0)" stroke="none" stroke-width="1"/><g id="eb2IGSz1jay31_to" transform="translate(-71.150000,-57.510000)"><path id="eb2IGSz1jay31" d="M138.400000,645.660000C138.400000,645.660000,146.780000,656.660000,134.530000,673.160000C122.280000,689.660000,112.180000,703.670000,116.270000,714C116.270000,714,134.750000,683.270000,149.790000,682.840000C164.830000,682.410000,154.940000,664.140000,138.400000,645.660000Z" transform="translate(0,0)" fill="rgb(108,99,255)" stroke="none" stroke-width="1"/></g><path id="eb2IGSz1jay32" d="M138.400000,645.660000C139.130244,646.719775,139.706012,647.878045,140.110000,649.100000C154.790000,666.340000,162.600000,682.430000,148.500000,682.840000C135.360000,683.220000,119.600000,706.710000,115.820000,712.650000C115.944731,713.108032,116.094966,713.558735,116.270000,714C116.445034,714.441265,134.750000,683.270000,149.790000,682.840000C164.830000,682.410000,154.940000,664.140000,138.400000,645.660000Z" transform="matrix(1 0 0 1 -71.15000000000001 -57.51000000000000)" opacity="0.1" fill="rgb(0,0,0)" stroke="none" stroke-width="1"/><path id="eb2IGSz1jay33" d="M154,659.620000C154,663.480000,153.570000,666.620000,153,666.620000C152.430000,666.620000,152,663.490000,152,659.620000C152,655.750000,152.540000,657.620000,153.070000,657.620000C153.600000,657.620000,154,655.770000,154,659.620000Z" transform="matrix(1 0 0 1 -71.15000000000001 -57.51000000000000)" fill="rgb(255,208,55)" stroke="none" stroke-width="1"/><path id="eb2IGSz1jay34" d="M159.320000,664.230000C155.930000,666.080000,152.980000,667.230000,152.730000,666.720000C152.480000,666.210000,155.010000,664.370000,158.400000,662.530000C161.790000,660.690000,160.450000,662.030000,160.710000,662.530000C160.970000,663.030000,162.710000,662.380000,159.320000,664.230000Z" transform="matrix(1 0 0 1 -71.15000000000001 -57.51000000000000)" fill="rgb(255,208,55)" stroke="none" stroke-width="1"/><path id="eb2IGSz1jay35" d="M94.130000,645.660000C94.130000,645.660000,85.750000,656.660000,98,673.160000C110.250000,689.660000,120.350000,703.670000,116.260000,713.990000C116.260000,713.990000,97.780000,683.260000,82.740000,682.830000C67.700000,682.400000,77.590000,664.140000,94.130000,645.660000Z" transform="matrix(1 0 0 1 -71.15000000000001 -57.51000000000000)" fill="rgb(108,99,255)" stroke="none" stroke-width="1"/><path id="eb2IGSz1jay36" d="M94.130000,645.660000C93.399756,646.719775,92.823988,647.878045,92.420000,649.100000C77.750000,666.340000,69.930000,682.430000,84,682.830000C97.140000,683.210000,112.900000,706.700000,116.680000,712.640000C116.555269,713.098032,116.405034,713.548735,116.230000,713.990000C116.054966,714.431265,97.750000,683.260000,82.710000,682.830000C67.670000,682.400000,77.590000,664.140000,94.130000,645.660000Z" transform="matrix(1 0 0 1 -71.15000000000001 -57.51000000000000)" opacity="0.1" fill="rgb(0,0,0)" stroke="none" stroke-width="1"/><path id="eb2IGSz1jay37" d="M78.560000,659.620000C78.560000,663.480000,78.990000,666.620000,79.560000,666.620000C80.130000,666.620000,80.560000,663.490000,80.560000,659.620000C80.560000,655.750000,80.020000,657.620000,79.490000,657.620000C78.960000,657.620000,78.560000,655.770000,78.560000,659.620000Z" transform="matrix(1 0 0 1 -71.15000000000001 -57.51000000000000)" fill="rgb(255,208,55)" stroke="none" stroke-width="1"/><path id="eb2IGSz1jay38" d="M73.210000,664.230000C76.600000,666.080000,79.550000,667.230000,79.800000,666.720000C80.050000,666.210000,77.520000,664.370000,74.130000,662.530000C70.740000,660.690000,72.080000,662.030000,71.820000,662.530000C71.560000,663.030000,69.820000,662.380000,73.210000,664.230000Z" transform="matrix(1 0 0 1 -71.15000000000001 -57.51000000000000)" fill="rgb(255,208,55)" stroke="none" stroke-width="1"/><path id="eb2IGSz1jay39" d="M81.220000,712.550000C81.220000,712.550000,104.650000,711.830000,111.710000,706.800000C118.770000,701.770000,147.710000,695.800000,149.500000,703.800000C151.290000,711.800000,184.710000,743.910000,158.260000,744.120000C131.810000,744.330000,96.800000,740,89.760000,735.740000C82.720000,731.480000,81.220000,712.550000,81.220000,712.550000Z" transform="matrix(1 0 0 1 -71.15000000000001 -57.51000000000000)" fill="rgb(168,168,168)" stroke="none" stroke-width="1"/><path id="eb2IGSz1jay40" d="M158.740000,741.350000C132.290000,741.560000,97.280000,737.230000,90.230000,732.940000C84.860000,729.670000,82.720000,717.940000,82.010000,712.530000L81.230000,712.530000C81.230000,712.530000,82.710000,731.430000,89.760000,735.720000C96.810000,740.010000,131.820000,744.350000,158.270000,744.130000C165.910000,744.070000,168.540000,741.350000,168.400000,737.330000C167.340000,739.790000,164.420000,741.300000,158.740000,741.350000Z" transform="matrix(1 0 0 1 -71.15000000000001 -57.51000000000000)" opacity="0.2" fill="rgb(0,0,0)" stroke="none" stroke-width="1"/><path id="eb2IGSz1jay41" d="M753.280000,561.350000C742.908315,561.343936,732.578239,562.661239,722.540000,565.270000L685.670000,451.470000L685.190000,449.990000L688.330000,449.070000C695.730000,432.800000,676,430.360000,676,430.360000L674.340000,430.920000C663.910000,427.920000,645.840000,426.330000,627.090000,425.590000L627.090000,402.870000C627.137289,390.409665,629.388651,378.055955,633.740000,366.380000C634.270000,364.950000,634.740000,363.610000,635.100000,362.330000C635.180000,362.070000,635.260000,361.810000,635.330000,361.560000L635.460000,361.090000C635.550000,360.760000,635.650000,360.420000,635.730000,360.090000C635.810000,359.760000,635.850000,359.630000,635.900000,359.390000C635.950000,359.150000,636.020000,358.920000,636.070000,358.690000L636.140000,358.360000C636.220000,358.020000,636.290000,357.690000,636.360000,357.360000C636.360000,357.220000,636.410000,357.080000,636.440000,356.940000C636.470000,356.800000,636.550000,356.380000,636.600000,356.100000C636.650000,355.820000,636.660000,355.720000,636.690000,355.530000C636.720000,355.340000,636.760000,355.110000,636.790000,354.910000C636.820000,354.710000,636.790000,354.650000,636.840000,354.520000C636.890000,354.390000,636.910000,354.030000,636.940000,353.790000L636.940000,353.600000C636.940000,353.310000,637.010000,353.020000,637.030000,352.740000C637.050000,352.460000,637.030000,352.490000,637.030000,352.360000C637.030000,352.230000,637.030000,351.950000,637.030000,351.750000C637.030000,351.550000,637.030000,351.550000,637.030000,351.450000C637.030000,351.350000,637.030000,351.030000,637.030000,350.820000C637.030000,350.610000,637.030000,350.400000,637.030000,350.200000C637.030000,350,637.030000,350.040000,637.030000,349.960000C637.030000,349.880000,637.030000,349.630000,637.030000,349.470000C637.030000,349.310000,637.030000,349.260000,637.030000,349.170000C637.030000,349.080000,637.030000,348.930000,637.030000,348.810000C637.030000,348.690000,637.030000,348.560000,637.030000,348.440000C637.030000,348.320000,637.030000,348.200000,637.030000,348.080000C637.030000,347.960000,637.030000,347.870000,637.030000,347.770000C636.644040,343.901707,636.590511,340.007440,636.870000,336.130000L638.270000,318.610000C642.390869,317.348825,646.233008,315.312356,649.590000,312.610000C652.946992,309.907644,650.480000,286.480000,653.160000,265.800000C656.664271,239.654095,646.540046,213.534123,626.330000,196.580000C624.530000,195.090000,622.660000,193.660000,620.710000,192.330000C621.079833,190.915686,621.360386,189.479520,621.550000,188.030000C622.441315,186.395964,623.507575,184.863635,624.730000,183.460000C626.410000,181.800000,628.730000,180.850000,630.650000,179.460000C634.840000,176.330000,636.650000,171.230000,637.850000,166.350000C640.310000,156.350000,641.020000,145.480000,636.850000,135.960000C632.680000,126.440000,622.540000,118.670000,611.510000,119.170000C608.130000,119.320000,604.830000,120.170000,601.510000,120.560000C592.730000,121.450000,584.040000,118.560000,575.230000,118.030000C572.675797,117.716687,570.083895,118.060897,567.700000,119.030000C565.911083,120.009519,564.363434,121.376096,563.170000,123.030000C559.137858,128.248271,556.371949,134.331219,555.090000,140.800000C554.010000,145.670000,554.010000,150.080000,547.980000,150.800000C541.190000,151.650000,519.400000,147.090000,523.980000,161.450000C526.170000,168.240000,536.680000,168.450000,542.070000,173.450000C544.870000,176.050000,546.160000,179.890000,549.240000,182.210000L549.360000,182.290000C535.360000,182.500000,512.250000,188.040000,498.630000,219.030000C478.090000,265.790000,465.760000,281.030000,449.320000,293.240000C433.680000,304.850000,426.410000,342.240000,425.740000,345.820000C421.410000,356.750000,419.050000,376.820000,432.880000,410.140000C444.600000,438.390000,454.800000,457.620000,461.990000,472.070000L460.580000,471.940000C457.580134,471.710417,454.595468,471.313130,451.640000,470.750000C440.050000,468.550000,410.840000,463.950000,402.980000,471.750000C393.110000,481.510000,396.400000,498.600000,422.710000,501.040000C428.726012,501.544690,434.767048,501.684946,440.800000,501.460000L440.800000,544.310000L440.230000,544.660000L440.230000,544.660000C435.080000,547.730000,430.120000,550.480000,426.780000,552.290000L425.560000,552.950000C424.596500,551.366867,423.792557,549.691986,423.160000,547.950000L396,565.810000L409.480000,577L395.770000,591.170000C395.340000,590.790000,394.920000,590.400000,394.490000,590.020000C372.479714,571.194408,344.452938,560.877716,315.490000,560.940000C248.740000,560.940000,194.640000,614.490000,194.640000,680.540000C194.640000,746.590000,248.750000,800.140000,315.490000,800.140000C375.270000,800.140000,424.910000,757.140000,434.620000,700.760000C457.620000,702.470000,479,702.990000,493.040000,700.940000L493.040000,714.720000L554.670000,714.720000L554.670000,698.060000L556.210000,697.960000C583.940000,695.960000,569.560000,683.730000,569.560000,683.730000C563.200000,683.730000,556.200000,680.190000,551.280000,677.100000C549.550000,676.010000,547.770000,675.020000,545.950000,674.100000C547.619927,668.173459,547.112646,661.844866,544.520000,656.260000L685.090000,511.260000L706.570000,570.660000L705.140000,571.250000C662.350000,589.650000,632.420000,631.860000,632.420000,680.990000C632.420000,747.050000,686.530000,800.590000,753.270000,800.590000C820.010000,800.590000,874.130000,747,874.130000,681C874.130000,615,820,561.350000,753.280000,561.350000ZM759.720000,770.610000L754.720000,693.420000C755.644904,693.290141,756.553356,693.062190,757.430000,692.740000L798.730000,758.630000C786.796118,765.513205,773.460211,769.608672,759.720000,770.610000ZM679.110000,733.730000L742.360000,688.360000L742.480000,688.520000L716.540000,763.410000C701.653393,757.008811,688.735724,746.765787,679.110000,733.730000ZM795.710000,600.800000L761,669.430000C759.376758,667.922236,757.398888,666.849026,755.250000,666.310000L754.410000,663.720000L756.800000,590.320000C770.387016,590.874350,783.679499,594.451124,795.710000,600.790000ZM752.580000,658L731.440000,592.770000C738.457595,591.100363,745.646518,590.257963,752.860000,590.260000L754.780000,590.260000ZM715,598.370000C715.470000,598.160000,716,597.970000,716.420000,597.760000L742.500000,670C741.468926,671.049861,740.623581,672.267158,740,673.600000L673.140000,636.500000C675.654631,632.099411,678.534774,627.918019,681.750000,624L689.210000,615.890000C696.740685,608.617125,705.464047,602.691057,715,598.370000ZM672.250000,638.280000L739.390000,675.540000C739.087375,676.641266,738.932683,677.777914,738.930000,678.920000C738.930000,679.090000,738.930000,679.260000,738.930000,679.430000L661.670000,678.070000C662.031414,664.169255,665.640994,650.545999,672.210000,638.290000ZM765.980000,679.150000L840,653.620000C847.967018,678.966428,844.286297,706.540704,829.950000,728.910000L764.070000,687.360000C765.363285,685.323008,766.056436,682.962827,766.070000,680.550000C766.051595,680.084673,766.008199,679.620670,765.940000,679.160000ZM839.400000,651.680000L765.590000,677.140000C764.850209,674.991866,763.842243,672.945695,762.590000,671.050000L797.590000,601.760000C817.204717,612.670141,832.084724,630.457038,839.360000,651.690000ZM665.610000,457.380000L670.800000,471.720000L581.280000,499.300000L580.350000,480.810000L631.350000,465.810000C631.455828,466.954023,631.384999,468.107519,631.140000,469.230000C632.428427,467.879405,633.589980,466.413237,634.610000,464.850000L665.030000,455.910000ZM321.930000,770.180000L316.930000,693.180000C317.941597,693.164786,318.948136,693.033936,319.930000,692.790000L360.930000,758.260000C348.993907,765.120452,335.661947,769.195246,321.930000,770.180000ZM241.320000,733.320000L304.570000,688L304.690000,688.160000L278.750000,763C263.863393,756.598811,250.945724,746.355787,241.320000,733.320000ZM223.850000,677.660000C224.217579,663.757635,227.834034,650.134286,234.410000,637.880000L302.690000,675.770000C302.321580,676.812380,302.089653,677.898069,302,679ZM357.920000,600.390000L326.290000,663L321.450000,668C319.940431,667.419822,318.337220,667.121550,316.720000,667.120000L316.530000,667.120000L319,589.920000C332.590625,590.471537,345.886971,594.048432,357.920000,600.390000ZM388.180000,626.090000C393.956738,633.718169,398.473987,642.222617,401.560000,651.280000L335.070000,674.210000ZM331.230000,677.690000L402.230000,653.220000Q403.230000,656.530000,404.070000,659.950000C404.190000,660.470000,404.300000,660.950000,404.410000,661.500000C372.500000,668.130000,342.740000,675.450000,330.290000,678.580000ZM314.470000,667.150000C312.488254,667.230505,310.550177,667.756897,308.800000,668.690000L281.910000,596C292.489005,591.920896,303.731824,589.835754,315.070000,589.850000C315.710000,589.850000,316.350000,589.850000,316.990000,589.850000ZM307,669.850000C305.559787,670.942659,304.361315,672.321582,303.480000,673.900000L235.400000,636.090000C237.910048,631.679449,240.786869,627.487988,244,623.560000L251.480000,615.420000C259.731694,607.460650,269.406452,601.123886,280,596.740000ZM404.520000,698C402.319319,708.842965,398.121275,719.182088,392.140000,728.490000L327.480000,687.710000C340.670000,689.810000,371.710000,694.510000,404.520000,698ZM433.390000,654.200000C429.382138,636.641332,421.427624,620.226171,410.130000,606.200000L413.300000,603.330000L440.860000,630.240000L440.860000,654.520000Q437.320000,655.130000,433.730000,655.780000C433.620000,655.250000,433.520000,654.730000,433.400000,654.210000ZM440.860000,603.090000L440.260000,602.510000L440.860000,603ZM462.240000,567.860000L462.310000,567.810000L463.820000,566.810000L464.490000,566.360000L465.230000,565.870000L466.070000,565.320000L466.850000,564.820000L467.800000,564.210000L468.590000,563.710000L469.750000,562.990000L470.460000,562.550000L471.700000,561.800000C472.190847,566.336626,473.322093,570.780807,475.060000,575L475.450000,610.830000C469.651674,604.312955,465.166243,596.737637,462.240000,588.520000ZM576.850000,410.860000C579.280000,413.020000,580.850000,414.360000,580.850000,414.360000C580.850000,414.360000,586,419,591.860000,425C586.650000,425,581.810000,425,577.560000,425.110000ZM578.640000,446.510000C586.990000,446.800000,597.850000,447.090000,609.410000,447.170000C609.490000,447.420000,609.570000,447.670000,609.620000,447.900000C611.980859,448.629317,614.289498,449.518026,616.530000,450.560000L579.470000,463.140000ZM588.060000,380.810000C588.060000,380.810000,580.430000,360.810000,571.120000,345.690000C576.030000,331.310000,585.180000,316.100000,602.270000,309.360000L602.150000,310.730000L602.090000,311.470000C601.550000,317.780000,600.930000,325.470000,600.400000,333.370000L600.400000,333.830000Q600.310000,335.240000,600.210000,336.660000L600.210000,337.150000L600.140000,338.310000L600.070000,339.450000L600.010000,340.450000Q599.950000,341.450000,599.890000,342.450000L599.890000,343.020000Q599.890000,343.880000,599.800000,344.740000L599.800000,345.410000Q599.750000,346.410000,599.700000,347.470000L599.700000,347.590000Q599.640000,348.740000,599.600000,349.870000L599.600000,350.210000Q599.600000,351.210000,599.520000,352.290000L599.520000,352.450000Q599.430000,354.740000,599.380000,356.920000L599.380000,357.080000C599.380000,358.530000,599.320000,359.930000,599.300000,361.280000L599.300000,361.400000C599.300000,362.760000,599.300000,364.060000,599.300000,365.290000L599.300000,365.290000Q599.300000,366.180000,599.300000,367.030000L599.300000,367.140000C599.300000,368.260000,599.370000,369.310000,599.430000,370.280000L599.430000,370.460000C599.490000,371.400000,599.570000,372.270000,599.660000,373.040000L599.660000,373.220000Q599.720000,373.710000,599.790000,374.150000L599.790000,374.310000C599.850000,374.630000,599.900000,374.940000,599.970000,375.210000L599.970000,375.320000C600.020000,375.550000,600.080000,375.760000,600.140000,375.950000L600.190000,376.120000C600.254093,376.314835,600.330926,376.505245,600.420000,376.690000C602.130000,380.070000,602.950000,390.470000,603.320000,401.480000C594.510000,390.100000,588.050000,380.790000,588.050000,380.790000ZM462.240000,649.560000L462.240000,620.730000L475.680000,631.870000L475.680000,631.870000L475.870000,649.580000C471.570000,650,467,650.580000,462.230000,651.200000ZM462.240000,499.840000C465.720000,499.400000,469.140000,498.840000,472.450000,498.300000C472.943276,500.774363,473.131345,503.299867,473.010000,505.820000L473.010000,521.070000L473.700000,521.070000C469.741131,523.578736,465.915926,526.292429,462.240000,529.200000L462.240000,499.850000ZM375.300000,612.330000L331.090000,658L359.710000,601.350000C364.774546,604.169503,369.559427,607.464341,374,611.190000C374.450000,611.560000,374.870000,612,375.300000,612.330000ZM223.820000,680.140000C223.820000,679.990000,223.820000,679.840000,223.820000,679.690000L302,681.070000C302.125671,682.879275,302.633503,684.641349,303.490000,686.240000L240.160000,731.670000C229.517272,716.595537,223.808671,698.592830,223.820000,680.140000ZM315.080000,770.450000C303.281994,770.463074,291.592072,768.201823,280.650000,763.790000L306.280000,689.790000C308.648256,691.908245,311.702919,693.098143,314.880000,693.140000L319.880000,770.310000C318.290000,770.400000,316.690000,770.450000,315.080000,770.450000ZM362.700000,757.170000L321.910000,692.100000C323.477040,691.432939,324.899943,690.468490,326.100000,689.260000L391,730.200000C383.624569,741.127839,373.969946,750.328730,362.700000,757.170000ZM527.880000,642.100000C525.514612,641.431880,523.067931,641.095335,520.610000,641.100000L519.790000,641.100000L518.970000,641.100000C514.812877,641.088100,510.711659,642.057728,507,643.930000C505.260000,633.190000,504.380000,619.510000,508.270000,608.980000C510.585979,602.618738,512.326295,596.062432,513.470000,589.390000L521.820000,542.170000L677.190000,489.450000L679.090000,494.710000ZM661.610000,680.550000C661.610000,680.400000,661.610000,680.250000,661.610000,680.100000L739.140000,681.470000C739.712195,683.245766,740.414084,684.977093,741.240000,686.650000L677.910000,732.080000C667.281473,717.000813,661.586968,698.998494,661.610000,680.550000ZM752.870000,770.860000C741.071994,770.873074,729.382072,768.611823,718.440000,764.200000L744.070000,690.200000C746.438256,692.318245,749.492919,693.508143,752.670000,693.550000L757.670000,770.730000Q755.280000,770.860000,752.870000,770.860000ZM800.500000,757.590000L759.310000,691.890000C760.648487,691.143144,761.846440,690.168537,762.850000,689.010000L828.850000,730.620000C821.459425,741.552572,811.787472,750.753721,800.500000,757.590000Z" transform="matrix(1 0 0 1 -71.15000000000001 -57.51000000000000)" fill="url(#eb2IGSz1jay41-fill)" stroke="none" stroke-width="1"/><path id="eb2IGSz1jay42" d="M752.570000,774.900000L746.310000,677L746.180000,676.790000L739.860000,678.990000L710.770000,763.800000L664.520000,731L738.210000,677.590000L738.280000,677.380000L738.700000,677.230000L743.450000,673.780000L666.210000,630.470000L647.280000,651.270000L650.280000,670.770000L739.080000,672.350000L739.080000,674.350000L648.600000,672.730000L645.200000,650.620000L671.090000,622.170000L709.810000,577L710.500000,578.870000L718.700000,569.870000L749.240000,575.340000L749.240000,574.130000L751.240000,574.190000L751.240000,575.700000L796.600000,583.820000L754.270000,668.470000L748.100000,672.940000L748.100000,673.440000L748.100000,674L845.910000,639.920000L834.300000,731.130000L751.300000,678.260000L748.380000,676.620000L797.320000,755.510000ZM748.570000,680.560000L754.420000,771.940000L794.470000,754.560000ZM668,731L709.790000,760.630000L737.130000,680.890000ZM750.320000,675.340000L752.410000,676.510000L832.760000,727.710000L843.560000,642.840000ZM743.220000,668.140000L745.730000,672.190000L746.170000,671.870000L749.170000,577.340000L719.430000,572L711.270000,581ZM667.830000,629.090000L742.670000,671.090000L741.370000,668.960000L709.790000,582.690000L672.590000,623.570000ZM751.200000,577.700000L748.200000,670.390000L752.720000,667.110000L793.630000,585.290000Z" transform="matrix(1 0 0 1 -71.15000000000001 -57.51000000000000)" fill="rgb(83,84,97)" stroke="none" stroke-width="1"/><path id="eb2IGSz1jay43" d="M326.380000,774.500000L320.110000,676.560000L319.980000,676.350000L313.660000,678.550000L284.580000,763.400000L238.330000,730.610000L312,677.200000L312.070000,676.990000L312.490000,676.840000L317.240000,673.390000L240,630.080000L221.080000,650.880000L224.080000,670.380000L312.900000,672L312.900000,674L222.420000,672.380000L219,650.240000L244.900000,621.780000L283.650000,576.580000L284.340000,578.450000L292.540000,569.450000L323,574.910000L323,573.700000L325,573.760000L325,575.270000L370.360000,583.390000L328.070000,668L321.900000,672.470000L321.900000,672.970000L321.900000,673.530000L419.700000,639.450000L408.090000,730.660000L325.090000,677.790000L322.170000,676.150000L371.110000,755.030000ZM322.380000,680.160000L328.230000,771.540000L368.280000,754.160000ZM241.800000,730.590000L283.590000,760.220000L310.930000,680.480000ZM324.120000,674.930000L326.210000,676.100000L406.560000,727.300000L417.360000,642.430000ZM317.020000,667.730000L319.530000,671.780000L319.970000,671.460000L322.970000,576.930000L293.230000,571.610000L285.070000,580.610000ZM241.600000,628.670000L316.440000,670.670000L315.140000,668.540000L283.560000,582.270000L246.370000,623.140000ZM325,577.280000L322,670L326.520000,666.720000L367.430000,584.900000Z" transform="matrix(1 0 0 1 -71.15000000000001 -57.51000000000000)" fill="rgb(83,84,97)" stroke="none" stroke-width="1"/><rect id="eb2IGSz1jay44" width="60" height="19" rx="0" ry="0" transform="matrix(0.71178100000000 0.70240200000000 -0.70240200000000 0.71178100000000 344.29255552999996 512.15934025999991)" fill="rgb(108,99,255)" stroke="none" stroke-width="1"/><rect id="eb2IGSz1jay45" width="60" height="19" rx="0" ry="0" transform="matrix(0.71178100000000 0.70240200000000 -0.70240200000000 0.71178100000000 344.29255552999996 512.15934025999991)" opacity="0.1" fill="rgb(0,0,0)" stroke="none" stroke-width="1"/><path id="eb2IGSz1jay46" d="M425.630000,549.500000C425.630000,549.500000,450.420000,536.420000,460,528C465.767131,522.954312,471.967793,518.426792,478.530000,514.470000L509.630000,495.540000L574.630000,490.540000L577.630000,501.540000C577.630000,501.540000,582.630000,517.540000,532.630000,531.540000C482.630000,545.540000,457.630000,567.540000,457.630000,567.540000C457.630000,567.540000,425.630000,578.500000,425.630000,549.500000Z" transform="matrix(1 0 0 1 -71.15000000000001 -57.51000000000000)" fill="rgb(219,139,139)" stroke="none" stroke-width="1"/><path id="eb2IGSz1jay47" d="M460.280000,565.370000C458.510000,566.720000,457.630000,567.500000,457.630000,567.500000C457.630000,567.500000,425.630000,578.500000,425.630000,549.500000C425.630000,549.500000,427.180000,548.680000,429.630000,547.310000C434.663325,555.506107,443.591760,560.500427,453.210000,560.500000L456.600000,560.500000Z" transform="matrix(1 0 0 1 -71.15000000000001 -57.51000000000000)" opacity="0.1" fill="rgb(0,0,0)" stroke="none" stroke-width="1"/><path id="eb2IGSz1jay48" d="M576.690000,507.060000C573.910000,512.950000,564.320000,522.630000,532.630000,531.500000C492.020000,542.870000,467.900000,559.500000,460.280000,565.370000C458.510000,566.720000,457.630000,567.500000,457.630000,567.500000C457.630000,567.500000,425.630000,578.500000,425.630000,549.500000C425.630000,549.500000,427.180000,548.680000,429.630000,547.310000C437.060000,543.240000,452.790000,534.310000,459.970000,527.960000C465.735829,522.912685,471.936639,518.385056,478.500000,514.430000L509.600000,495.500000L521.180000,494.610000L574.600000,490.500000L577.600000,501.500000C577.600000,501.500000,578.300000,503.650000,576.690000,507.060000Z" transform="matrix(1 0 0 1 -71.15000000000001 -57.51000000000000)" opacity="0.05" fill="rgb(0,0,0)" stroke="none" stroke-width="1"/><path id="eb2IGSz1jay49" d="M426.130000,543L399.630000,560.500000L477.230000,625.500000C477.230000,625.500000,488.630000,618.500000,482.630000,610.500000C482.630000,610.500000,462.630000,593.500000,461.630000,569.500000L455.630000,561.500000L452.240000,561.500000C440.491817,561.501562,430.023417,554.084273,426.130000,543Z" transform="matrix(1 0 0 1 -71.15000000000001 -57.51000000000000)" fill="rgb(171,177,209)" stroke="none" stroke-width="1"/><path id="eb2IGSz1jay50" d="M576.690000,507.060000C560.690000,499.330000,521.630000,498.500000,521.630000,498.500000L521.210000,494.610000L574.630000,490.500000L577.630000,501.500000C577.630000,501.500000,578.300000,503.650000,576.690000,507.060000Z" transform="matrix(1 0 0 1 -71.15000000000001 -57.51000000000000)" opacity="0.1" fill="rgb(0,0,0)" stroke="none" stroke-width="1"/><path id="eb2IGSz1jay51" d="M521.630000,496.500000C521.630000,496.500000,568.630000,497.500000,580.630000,507.500000L574.630000,386.500000L509.630000,386.500000Z" transform="matrix(1 0 0 1 -71.15000000000001 -57.51000000000000)" fill="rgb(171,177,209)" stroke="none" stroke-width="1"/><path id="eb2IGSz1jay52" d="M521.630000,496C521.630000,496,568.630000,497,580.630000,507L574.630000,386L509.630000,386Z" transform="matrix(1 0 0 1 -71.15000000000001 -57.51000000000000)" opacity="0.05" fill="rgb(0,0,0)" stroke="none" stroke-width="1"/><path id="eb2IGSz1jay53" d="M747.480000,556.120000C736.866550,556.108135,726.300430,557.534443,716.070000,560.360000C710.793641,561.814948,705.627305,563.642882,700.610000,565.830000C645.241244,589.831989,616.996098,651.821769,635.214767,709.353280C653.433437,766.884790,712.212603,801.316329,771.304596,789.071701C830.396589,776.827073,870.654073,721.873856,864.511671,661.839986C858.369269,601.806116,807.817278,556.144125,747.470000,556.120000ZM747.080000,762.210000C705.293740,762.193339,669.164563,733.064776,660.284925,692.232879C651.405287,651.400982,672.174530,609.898823,710.180000,592.530000C714.871937,590.382055,719.744139,588.652022,724.740000,587.360000C758.077960,578.706426,793.413787,590.099916,815.417757,616.597636C837.421727,643.095356,842.129173,679.922958,827.497866,711.103541C812.866558,742.284123,781.532761,762.199581,747.090000,762.210000Z" transform="matrix(1 0 0 1 -71.15000000000001 -57.51000000000000)" fill="rgb(83,84,97)" stroke="none" stroke-width="1"/><path id="eb2IGSz1jay54" d="M559.390000,422.460000C559.390000,422.460000,677.040000,418.460000,679.440000,433.670000C681.840000,448.880000,561.790000,442.470000,561.790000,442.470000C561.790000,442.470000,552.190000,432.860000,559.390000,422.460000Z" transform="matrix(1 0 0 1 -71.15000000000001 -57.51000000000000)" fill="rgb(83,84,97)" stroke="none" stroke-width="1"/><path id="eb2IGSz1jay55" d="M559.390000,422.460000C559.390000,422.460000,677.040000,418.460000,679.440000,433.670000C681.840000,448.880000,561.790000,442.470000,561.790000,442.470000C561.790000,442.470000,552.190000,432.860000,559.390000,422.460000Z" transform="matrix(1 0 0 1 -71.15000000000001 -57.51000000000000)" opacity="0.05" fill="rgb(0,0,0)" stroke="none" stroke-width="1"/><circle id="eb2IGSz1jay56" r="0" transform="matrix(1 0 0 1 409.81000000000000 689.10000000000002)" fill="none" stroke="rgb(193,39,45)" stroke-width="1" stroke-miterlimit="10"/><rect id="eb2IGSz1jay57" width="20.810000" height="180.880000" rx="0" ry="0" transform="matrix(1 0 0 1 372.19000000000000 425.77999999999997)" fill="rgb(108,99,255)" stroke="none" stroke-width="1"/><path id="eb2IGSz1jay58" d="M464.150000,483.280000L464.150000,497.210000C457.230000,498.110000,450.150000,498.680000,443.340000,498.900000L443.340000,483.280000Z" transform="matrix(1 0 0 1 -71.15000000000001 -57.51000000000000)" opacity="0.1" fill="rgb(0,0,0)" stroke="none" stroke-width="1"/><path id="eb2IGSz1jay59" d="M462.590000,468.290000C459.670276,468.064196,456.765645,467.673573,453.890000,467.120000C442.610000,464.960000,414.170000,460.430000,406.520000,468.120000C396.920000,477.720000,400.120000,494.530000,425.730000,496.930000C451.340000,499.330000,495.360000,492.930000,504.170000,483.320000C504.170000,483.280000,488.240000,470.260000,462.590000,468.290000Z" transform="matrix(1 0 0 1 -71.15000000000001 -57.51000000000000)" fill="rgb(83,84,97)" stroke="none" stroke-width="1"/><polygon id="eb2IGSz1jay60" points="387.400000,475.400000 605.900000,407.370000 613.100000,424.180000 389,501.010000 387.400000,475.400000" fill="rgb(108,99,255)" stroke="none" stroke-width="1"/><polygon id="eb2IGSz1jay61" points="452.230000,582.650000 609.900000,427.380000 618.700000,440.180000 468.230000,597.050000 452.230000,582.650000" fill="rgb(108,99,255)" stroke="none" stroke-width="1"/><path id="eb2IGSz1jay62" d="M724.730000,587.360000C719.734139,588.652022,714.861937,590.382055,710.170000,592.530000L700.610000,565.820000C705.627305,563.632882,710.793641,561.804948,716.070000,560.350000Z" transform="matrix(1 0 0 1 -71.15000000000001 -57.51000000000000)" opacity="0.1" fill="rgb(0,0,0)" stroke="none" stroke-width="1"/><polygon id="eb2IGSz1jay63" points="680.330000,608.260000 669.130000,614.660000 590.990000,396.330000 587.490000,386.560000 605.900000,376.150000 610.510000,390.530000 680.330000,608.260000" fill="rgb(108,99,255)" stroke="none" stroke-width="1"/><polygon id="eb2IGSz1jay64" points="610.510000,390.530000 590.990000,396.330000 587.490000,386.560000 605.900000,376.150000 610.510000,390.530000" opacity="0.1" fill="rgb(0,0,0)" stroke="none" stroke-width="1"/><path id="eb2IGSz1jay65" d="M562.590000,464.880000L672.240000,427.260000C672.240000,427.260000,691.450000,429.660000,684.240000,445.670000L573.800000,478.480000C573.800000,478.480000,557,480.080000,562.590000,464.880000Z" transform="matrix(1 0 0 1 -71.15000000000001 -57.51000000000000)" fill="rgb(83,84,97)" stroke="none" stroke-width="1"/><path id="eb2IGSz1jay66" d="M436.070000,647.460000C432.059460,629.640585,423.940250,613.004936,412.360000,598.880000C408.061210,593.630842,403.320536,588.759691,398.190000,584.320000C357.617447,549.290591,298.496216,546.114116,254.403935,576.594640C210.311655,607.075164,192.396413,663.506132,210.833090,713.837837C229.269766,764.169542,279.396916,795.676348,332.745057,790.464111C386.093198,785.251874,429.174033,744.638431,437.520000,691.690000C438.464245,685.628995,438.938990,679.504116,438.940000,673.370000C438.946743,664.653648,437.984161,655.963577,436.070000,647.460000ZM320.880000,761.810000C283.528987,761.770784,250.199883,738.350188,237.505854,703.222402C224.811825,668.094617,235.469935,628.778485,264.167561,604.871458C292.865187,580.964431,333.459814,577.583632,365.716714,596.414248C397.973614,615.244863,414.988435,652.256339,408.280000,689C400.541220,731.185207,363.769163,761.818770,320.880000,761.810000Z" transform="matrix(1 0 0 1 -71.15000000000001 -57.51000000000000)" fill="rgb(83,84,97)" stroke="none" stroke-width="1"/><path id="eb2IGSz1jay67" d="M438.940000,673.370000C438.938990,679.504116,438.464245,685.628995,437.520000,691.690000C427.920000,691,418,690,408.280000,689C410.439400,677.109136,410.170675,664.904296,407.490000,653.120000C416.960000,651.120000,426.630000,649.210000,436.070000,647.480000C437.982688,655.977054,438.945261,664.660335,438.940000,673.370000Z" transform="matrix(1 0 0 1 -71.15000000000001 -57.51000000000000)" opacity="0.1" fill="rgb(0,0,0)" stroke="none" stroke-width="1"/><path id="eb2IGSz1jay68" d="M464.150000,642.890000L464.150000,664.160000L443.340000,664.160000L443.340000,646.160000C450.540000,644.910000,457.540000,643.800000,464.150000,642.890000Z" transform="matrix(1 0 0 1 -71.15000000000001 -57.51000000000000)" opacity="0.1" fill="rgb(0,0,0)" stroke="none" stroke-width="1"/><path id="eb2IGSz1jay69" d="M329.690000,673C329.690000,673,497.770000,629,511.370000,645.790000C524.970000,662.580000,539.380000,685,497,693C454.620000,701,326.520000,679.390000,326.520000,679.390000Z" transform="matrix(1 0 0 1 -71.15000000000001 -57.51000000000000)" fill="rgb(108,99,255)" stroke="none" stroke-width="1"/><path id="eb2IGSz1jay70" d="M412.360000,598.880000L391,618.430000C387.217347,613.573990,382.941125,609.123502,378.240000,605.150000L398.180000,584.320000C403.314000,588.759260,408.058032,593.630423,412.360000,598.880000Z" transform="matrix(1 0 0 1 -71.15000000000001 -57.51000000000000)" opacity="0.1" fill="rgb(0,0,0)" stroke="none" stroke-width="1"/><polygon id="eb2IGSz1jay71" points="252.940000,606.660000 378.590000,475.400000 382.600000,505.810000 259.340000,618.660000 252.940000,606.660000" fill="rgb(108,99,255)" stroke="none" stroke-width="1"/><circle id="eb2IGSz1jay72" r="12.810000" transform="matrix(1 0 0 1 251.34000000000000 615.46000000000004)" opacity="0.1" fill="rgb(0,0,0)" stroke="none" stroke-width="1"/><circle id="eb2IGSz1jay73" r="12.810000" transform="matrix(1 0 0 1 249.72999999999999 615.46000000000004)" fill="rgb(83,84,97)" stroke="none" stroke-width="1"/><circle id="eb2IGSz1jay74" r="12.810000" transform="matrix(1 0 0 1 675.13000000000000 614.25999999999999)" opacity="0.1" fill="rgb(0,0,0)" stroke="none" stroke-width="1"/><circle id="eb2IGSz1jay75" r="12.810000" transform="matrix(1 0 0 1 675.92999999999995 615.86000000000001)" fill="rgb(83,84,97)" stroke="none" stroke-width="1"/><circle id="eb2IGSz1jay76" r="25.610000" transform="matrix(1 0 0 1 448.22000000000003 602.65999999999997)" opacity="0.1" fill="rgb(0,0,0)" stroke="none" stroke-width="1"/><circle id="eb2IGSz1jay77" r="25.610000" transform="matrix(1 0 0 1 449.82999999999998 602.65999999999997)" fill="rgb(83,84,97)" stroke="none" stroke-width="1"/><rect id="eb2IGSz1jay78" width="13.610000" height="47.540000" rx="6.800000" ry="6.800000" transform="matrix(0.80083600000000 -0.59888400000000 0.59888400000000 0.80083600000000 437.53863168000004 604.81443432000015)" fill="rgb(108,99,255)" stroke="none" stroke-width="1"/><path id="eb2IGSz1jay79" d="M636.630000,304.500000L634.250000,334.610000C633.976166,338.424043,634.026346,342.254440,634.400000,346.060000C634.710000,349.430000,634.400000,355.330000,631.100000,364.330000C626.863048,375.826914,624.673273,387.977289,624.630000,400.230000L624.630000,434.500000L601.630000,430.500000C601.630000,430.500000,602.630000,382.500000,598.630000,374.500000C594.630000,366.500000,601.630000,295.500000,601.630000,295.500000Z" transform="matrix(1 0 0 1 -71.15000000000001 -57.51000000000000)" fill="rgb(219,139,139)" stroke="none" stroke-width="1"/><path id="eb2IGSz1jay80" d="M635.450000,319.420000L634.250000,334.610000C633.979671,338.420995,634.033196,342.248056,634.410000,346.050000C634.720000,349.420000,634.410000,355.320000,631.110000,364.330000C626.873048,375.826914,624.683273,387.977289,624.640000,400.230000L624.640000,434.500000L601.640000,430.500000C601.640000,430.500000,602.640000,382.500000,598.640000,374.500000C595.810000,368.830000,598.490000,331.560000,600.300000,310.290000C601.050000,301.540000,601.640000,295.500000,601.640000,295.500000L636.640000,304.500000Z" transform="matrix(1 0 0 1 -71.15000000000001 -57.51000000000000)" opacity="0.05" fill="rgb(0,0,0)" stroke="none" stroke-width="1"/><path id="eb2IGSz1jay81" d="M522.650000,534.500000L514,583.700000C512.909295,590.268947,511.236025,596.727768,509,603C503.930000,616.860000,507.170000,636.290000,509.630000,646.890000C510.720000,651.570000,511.630000,654.530000,511.630000,654.530000L485.630000,668.530000L477.630000,662.530000L477.630000,658.530000L476.630000,569.530000C470.630000,555.530000,472.630000,534.530000,476.630000,526.530000C477.767375,523.901536,478.567079,521.139535,479.010000,518.310000C481.010000,507.590000,481.630000,492.530000,481.630000,492.530000C481.630000,492.530000,497.630000,465.530000,516.630000,483.530000C523.630000,490.160000,526.290000,498.830000,526.850000,507.130000C527.830000,521.340000,522.650000,534.500000,522.650000,534.500000Z" transform="matrix(1 0 0 1 -71.15000000000001 -57.51000000000000)" fill="rgb(219,139,139)" stroke="none" stroke-width="1"/><path id="eb2IGSz1jay82" d="M526.850000,507.100000C512.980000,515.340000,488.850000,517.670000,479.010000,518.280000C481.010000,507.560000,481.630000,492.500000,481.630000,492.500000C481.630000,492.500000,497.630000,465.500000,516.630000,483.500000C523.630000,490.130000,526.290000,498.800000,526.850000,507.100000Z" transform="matrix(1 0 0 1 -71.15000000000001 -57.51000000000000)" opacity="0.1" fill="rgb(0,0,0)" stroke="none" stroke-width="1"/><path id="eb2IGSz1jay83" d="M560.630000,482.500000C549.996030,488.162888,539.947270,494.862062,530.630000,502.500000C514.630000,515.500000,474.630000,516.500000,474.630000,516.500000L474.630000,501.500000C475.630000,483.500000,458.630000,463.500000,435.630000,407.500000C420.940000,371.740000,425.010000,351.500000,429.870000,341.500000C432.630000,335.850000,435.630000,333.500000,435.630000,333.500000L560.630000,357.500000L565.100000,370.900000L574.630000,399.500000C574.630000,399.500000,539.630000,401.500000,533.630000,404.500000C527.630000,407.500000,531.630000,434.500000,531.630000,434.500000C525.630000,462.500000,560.630000,482.500000,560.630000,482.500000Z" transform="matrix(1 0 0 1 -71.15000000000001 -57.51000000000000)" fill="rgb(171,177,209)" stroke="none" stroke-width="1"/><path id="eb2IGSz1jay84" d="M636.630000,304.500000L635.450000,319.420000C618.050000,324.420000,605.630000,308.500000,605.630000,308.500000C603.814972,308.986579,602.031603,309.584375,600.290000,310.290000C601.040000,301.540000,601.630000,295.500000,601.630000,295.500000Z" transform="matrix(1 0 0 1 -71.15000000000001 -57.51000000000000)" opacity="0.1" fill="rgb(0,0,0)" stroke="none" stroke-width="1"/><path id="eb2IGSz1jay85" d="M565.100000,370.900000C564.630000,375.570000,564.630000,378.500000,564.630000,378.500000C564.630000,378.500000,541.630000,397.500000,502.630000,368.500000C463.630000,339.500000,428.630000,347.500000,428.630000,347.500000C428.630000,347.500000,429.040000,345.180000,429.870000,341.500000C432.630000,335.850000,435.630000,333.500000,435.630000,333.500000L560.630000,357.500000Z" transform="matrix(1 0 0 1 -71.15000000000001 -57.51000000000000)" opacity="0.1" fill="rgb(0,0,0)" stroke="none" stroke-width="1"/><path id="eb2IGSz1jay86" d="M650.110000,265.450000C647.500000,285.800000,646.630000,311.450000,646.630000,311.450000C623.630000,329.450000,605.630000,306.450000,605.630000,306.450000C583.910000,312.280000,573.700000,331.290000,568.890000,347.880000C566.313705,356.853728,564.882354,366.117187,564.630000,375.450000C564.377646,384.782813,558.550000,380.450000,547.350000,381.450000C536.760000,382.340000,521.580000,379.580000,502.630000,365.450000C463.630000,336.450000,428.630000,344.450000,428.630000,344.450000C428.630000,344.450000,435.630000,304.450000,451.630000,292.450000C467.630000,280.450000,479.630000,265.450000,499.630000,219.450000C519.630000,173.450000,560.630000,184.450000,560.630000,184.450000C560.630000,184.450000,562.630000,175.450000,599.630000,184.450000C608.641945,186.811978,616.983639,191.230988,624,197.360000C643.790000,214,653.390000,239.810000,650.110000,265.450000Z" transform="matrix(1 0 0 1 -71.15000000000001 -57.51000000000000)" fill="rgb(255,255,255)" stroke="none" stroke-width="1"/><path id="eb2IGSz1jay87" d="M613,207C612.950000,208.330000,612.840000,209.810000,612.660000,211.460000C610.660000,229.460000,608.660000,227.460000,586.660000,231.460000C572.980000,233.950000,565.870000,222.520000,562.450000,213.520000C561.212232,210.259725,560.278264,206.892086,559.660000,203.460000L607.660000,195.460000C607.660000,195.460000,613.410000,193.850000,613,207Z" transform="matrix(1 0 0 1 -71.15000000000001 -57.51000000000000)" fill="rgb(219,139,139)" stroke="none" stroke-width="1"/><path id="eb2IGSz1jay88" d="M568.890000,347.930000C566.313705,356.903728,564.882354,366.167187,564.630000,375.500000C564.377646,384.832813,558.550000,380.500000,547.350000,381.500000C547.034512,380.862973,546.792941,380.191944,546.630000,379.500000C544.630000,370.500000,529.630000,354.500000,529.630000,354.500000C519.630000,345.500000,517.630000,329.500000,517.630000,329.500000L501.130000,281L495.630000,276.500000C495.630000,276.500000,518.630000,258.500000,538.630000,273.500000C558.630000,288.500000,552.630000,320.500000,552.630000,320.500000L556.630000,331.500000C560.780000,335,565,341.170000,568.890000,347.930000Z" transform="matrix(1 0 0 1 -71.15000000000001 -57.51000000000000)" opacity="0.05" fill="rgb(0,0,0)" stroke="none" stroke-width="1"/><path id="eb2IGSz1jay89" d="M498.630000,275.500000L520.630000,328.500000C520.630000,328.500000,522.630000,344.500000,532.630000,353.500000C532.630000,353.500000,547.630000,369.500000,549.630000,378.500000C551.630000,387.500000,579.630000,411.500000,579.630000,411.500000C579.630000,411.500000,605.630000,435.500000,607.630000,444.500000C607.630000,444.500000,631.630000,451.500000,628.630000,465.500000C628.630000,465.500000,646.630000,447.500000,628.630000,430.500000C610.630000,413.500000,586.630000,378.500000,586.630000,378.500000C586.630000,378.500000,572.630000,341.500000,559.630000,330.500000L555.630000,319.500000C555.630000,319.500000,561.630000,287.500000,541.630000,272.500000C521.630000,257.500000,498.630000,275.500000,498.630000,275.500000Z" transform="matrix(1 0 0 1 -71.15000000000001 -57.51000000000000)" fill="rgb(219,139,139)" stroke="none" stroke-width="1"/><path id="eb2IGSz1jay90" d="M511.630000,654.500000L485.630000,668.500000L477.630000,662.500000L477.630000,658.500000C486.614032,657.861911,495.342622,655.227961,503.180000,650.790000C505.580000,649.430000,507.840000,648.090000,509.650000,646.910000C510.700000,651.540000,511.630000,654.500000,511.630000,654.500000Z" transform="matrix(1 0 0 1 -71.15000000000001 -57.51000000000000)" opacity="0.1" fill="rgb(0,0,0)" stroke="none" stroke-width="1"/><path id="eb2IGSz1jay91" d="M541.630000,233.500000L555.630000,288.500000C555.630000,288.500000,512.630000,295.500000,503.630000,288.500000C494.630000,281.500000,477.630000,279.500000,477.630000,279.500000C477.630000,279.500000,495.630000,227.500000,505.630000,221.500000C515.630000,215.500000,541.630000,233.500000,541.630000,233.500000Z" transform="matrix(1 0 0 1 -71.15000000000001 -57.51000000000000)" opacity="0.1" fill="rgb(0,0,0)" stroke="none" stroke-width="1"/><path id="eb2IGSz1jay92" d="M541.630000,231.500000L555.630000,286.500000C555.630000,286.500000,512.630000,293.500000,503.630000,286.500000C494.630000,279.500000,477.630000,277.500000,477.630000,277.500000C477.630000,277.500000,495.630000,225.500000,505.630000,219.500000C515.630000,213.500000,541.630000,231.500000,541.630000,231.500000Z" transform="matrix(1 0 0 1 -71.15000000000001 -57.51000000000000)" fill="rgb(255,255,255)" stroke="none" stroke-width="1"/><path id="eb2IGSz1jay93" d="M613,206C607.339092,213.814186,598.703287,218.944651,589.133345,220.178994C579.563403,221.413336,569.908419,218.642040,562.450000,212.520000C561.212232,209.259725,560.278264,205.892086,559.660000,202.460000L607.660000,194.460000C607.660000,194.460000,613.410000,192.850000,613,206Z" transform="matrix(1 0 0 1 -71.15000000000001 -57.51000000000000)" opacity="0.1" fill="rgb(0,0,0)" stroke="none" stroke-width="1"/><path id="eb2IGSz1jay94" d="M619.630000,184.500000C619.630000,203.829966,603.959966,219.500000,584.630000,219.500000C565.300034,219.500000,549.630000,203.829966,549.630000,184.500000C549.630000,183.920000,549.630000,183.340000,549.630000,182.760000C550.110488,163.430034,566.170034,148.149512,585.500000,148.630000C604.829966,149.110488,620.110488,165.170034,619.630000,184.500000Z" transform="matrix(1 0 0 1 -71.15000000000001 -57.51000000000000)" fill="rgb(219,139,139)" stroke="none" stroke-width="1"/><path id="eb2IGSz1jay95" d="M619.630000,184.500000C619.633123,187.725730,619.188892,190.936310,618.310000,194.040000C615.604626,194.629657,612.783260,194.371265,610.230000,193.300000C606.490000,191.830000,603.280000,189.300000,599.690000,187.480000C589.580000,182.360000,577.550000,183.370000,566.350000,185.060000C560.790000,185.900000,554.480000,186.680000,550.110000,183.140000C549.959662,183.021488,549.816102,182.894621,549.680000,182.760000C550.160488,163.430034,566.220034,148.149512,585.550000,148.630000C604.879966,149.110488,620.160488,165.170034,619.680000,184.500000Z" transform="matrix(1 0 0 1 -71.15000000000001 -57.51000000000000)" opacity="0.1" fill="rgb(0,0,0)" stroke="none" stroke-width="1"/><path id="eb2IGSz1jay96" d="M524.310000,162.850000C526.440000,169.530000,536.670000,169.740000,541.920000,174.660000C544.650000,177.220000,545.920000,181,548.920000,183.280000C553.090000,186.460000,559.110000,185.760000,564.420000,185C575.110000,183.480000,586.590000,182.570000,596.230000,187.180000C599.650000,188.810000,602.720000,191.090000,606.290000,192.420000C609.860000,193.750000,614.290000,193.910000,617.190000,191.550000C619.510000,189.660000,620.360000,186.550000,622.460000,184.470000C624.090000,182.830000,626.360000,181.910000,628.220000,180.470000C632.300000,177.390000,634.060000,172.370000,635.220000,167.570000C637.620000,157.690000,638.310000,147.040000,634.220000,137.670000C630.130000,128.300000,620.290000,120.670000,609.550000,121.160000C606.260000,121.310000,603.050000,122.160000,599.770000,122.520000C591.220000,123.390000,582.770000,120.520000,574.190000,120.030000C571.701324,119.727152,569.176607,120.071588,566.860000,121.030000C565.113490,122.000847,563.606605,123.350550,562.450000,124.980000C558.521855,130.125424,555.832265,136.106852,554.590000,142.460000C553.590000,147.250000,553.540000,151.590000,547.670000,152.330000C541,153.210000,519.800000,148.720000,524.310000,162.850000Z" transform="matrix(1 0 0 1 -71.15000000000001 -57.51000000000000)" fill="rgb(71,39,39)" stroke="none" stroke-width="1"/><path id="eb2IGSz1jay97" d="M456.130000,292C456.130000,292,482.130000,299,490.130000,317C498.130000,335,519.770000,338.290000,519.770000,338.290000" transform="matrix(1 0 0 1 -71.15000000000001 -57.51000000000000)" opacity="0.05" fill="rgb(0,0,0)" stroke="none" stroke-width="1"/><rect id="eb2IGSz1jay98" width="60" height="19" rx="0" ry="0" transform="matrix(1 0 0 1 422.98000000000002 630.49000000000001)" fill="rgb(108,99,255)" stroke="none" stroke-width="1"/><rect id="eb2IGSz1jay99" width="60" height="19" rx="0" ry="0" transform="matrix(1 0 0 1 422.98000000000002 630.49000000000001)" opacity="0.1" fill="rgb(0,0,0)" stroke="none" stroke-width="1"/><path id="eb2IGSz1jay100" d="M503.140000,652.740000C508.510000,649.740000,513.220000,646.740000,513.630000,645.500000C513.630000,645.500000,527.180000,659.800000,539.250000,664.240000C543.308514,665.739279,547.194156,667.670366,550.840000,670C555.620000,673,562.440000,676.530000,568.630000,676.530000C568.630000,676.530000,582.630000,688.530000,555.630000,690.530000C528.630000,692.530000,465.630000,685.530000,465.630000,685.530000L469.630000,660.530000L469.630000,660.530000C481.317178,661.215370,492.953555,658.510285,503.140000,652.740000Z" transform="matrix(1 0 0 1 -71.15000000000001 -57.51000000000000)" fill="rgb(171,177,209)" stroke="none" stroke-width="1"/></svg>