<svg id="ePFyEuAQkYd1" xmlns="http://www.w3.org/2000/svg" xmlns:xlink="http://www.w3.org/1999/xlink" viewBox="0 0 793 551.731520" shape-rendering="geometricPrecision" text-rendering="geometricPrecision"><style><![CDATA[#ePFyEuAQkYd27_tr {animation: ePFyEuAQkYd27_tr__tr 3000ms linear 1 normal forwards}@keyframes ePFyEuAQkYd27_tr__tr { 0% {transform: translate(-203.500000px,-174.134000px) rotate(0.008114deg);animation-timing-function: cubic-bezier(0.420000,0,0.580000,1)} 50% {transform: translate(-203.500000px,-174.134000px) rotate(-0.262046deg);animation-timing-function: cubic-bezier(0.420000,0,0.580000,1)} 100% {transform: translate(-203.500000px,-174.134000px) rotate(-0.043742deg)}}]]></style><ellipse id="ePFyEuAQkYd2" rx="158" ry="12" transform="matrix(1 0 0 1 158 539.73199999999997)" fill="rgb(230,230,230)" stroke="none" stroke-width="1"/><path id="ePFyEuAQkYd3" d="M324.272270,296.553770C351.769030,284.858470,386.016690,292.268490,419.463190,297.411340C419.774430,291.183340,423.547040,283.603520,419.595190,279.258500C414.794040,273.979700,415.236020,268.433210,418.125110,262.854750C425.512990,248.589750,414.928210,233.411000,404.240830,220.790050C399.355156,215.033384,392.016180,211.953045,384.485460,212.498260L364.687960,213.912370C354.822661,214.617016,346.431174,221.371568,343.635000,230.858510L343.635000,230.858510C338.907760,237.287680,336.377640,243.699060,337.970620,250.077050C330.889970,254.915870,329.700330,260.756820,332.882110,267.341450C335.580110,271.487370,335.551390,275.523060,332.759360,279.447050C329.092604,284.449845,326.284187,290.028113,324.449250,295.953150Z" transform="matrix(1 0 0 1 -205.08174876000001 -174.13399999999999)" fill="rgb(47,46,65)" stroke="none" stroke-width="1"/><path id="ePFyEuAQkYd4" d="M977.708890,651.097270L417.291110,651.097270C412.307398,651.097270,407.527805,649.117498,404.003789,645.593481C400.479772,642.069465,398.500000,637.289872,398.500000,632.306160L398.500000,632.306160Q703.227000,596.891040,996.500000,632.306160L996.500000,632.306160C996.500000,637.289872,994.520228,642.069465,990.996211,645.593481C987.472195,649.117498,982.692602,651.097270,977.708890,651.097270Z" transform="matrix(1 0 0 1 -203.50000000000000 -174.13399999999999)" fill="rgb(47,46,65)" stroke="none" stroke-width="1"/><path id="ePFyEuAQkYd5" d="M996.500000,633.411510L398.500000,632.306150L467.806110,515.690620L468.137710,515.137940L468.137710,258.130570C468.137185,251.830409,470.639681,245.788135,475.094568,241.333248C479.549455,236.878361,485.591729,234.375865,491.891890,234.376390L899.792000,234.376390C906.092161,234.375865,912.134435,236.878361,916.589322,241.333248C921.044209,245.788135,923.546705,251.830409,923.546180,258.130570L923.546180,516.906490Z" transform="matrix(1 0 0 1 -203.50000000000000 -174.13399999999999)" fill="rgb(63,61,86)" stroke="none" stroke-width="1"/><path id="ePFyEuAQkYd6" d="M491.350280,250.956790C487.078948,250.961585,483.617545,254.422988,483.612750,258.694320L483.612750,493.030730C483.617737,497.301981,487.079029,500.763268,491.350280,500.768250L903.649720,500.768250C907.920893,500.763082,911.382076,497.301903,911.387250,493.030730L911.387250,258.694320C911.382268,254.423065,907.920975,250.961772,903.649720,250.956790Z" transform="matrix(1 0 0 1 -203.50000000000000 -174.13399999999999)" fill="rgb(255,255,255)" stroke="none" stroke-width="1"/><path id="ePFyEuAQkYd7" d="M493.077940,531.718350C491.783650,531.720542,490.608233,532.473550,490.065190,533.648410L468.709820,580.073550C468.237391,581.100200,468.320369,582.296772,468.929983,583.248387C469.539596,584.200002,470.591897,584.775616,471.722030,584.775650L920.814110,584.775650C921.963396,584.775640,923.030712,584.180477,923.634803,583.202760C924.238895,582.225042,924.293597,581.004227,923.779370,579.976400L900.566800,533.551260C900.008194,532.425352,898.858399,531.714632,897.601540,531.718350Z" transform="matrix(1 0 0 1 -203.50000000000000 -174.13399999999999)" fill="rgb(47,46,65)" stroke="none" stroke-width="1"/><circle id="ePFyEuAQkYd8" r="4.974120" transform="matrix(1 0 0 1 492.34199999999998 67.97969999999999)" fill="rgb(255,255,255)" stroke="none" stroke-width="1"/><path id="ePFyEuAQkYd9" d="M651.699860,593.618530C650.201313,593.620416,648.889656,594.625611,648.498210,596.072130L643.141420,615.968620C642.872960,616.964777,643.083488,618.029136,643.710970,618.848078C644.338453,619.667020,645.311382,620.147218,646.343080,620.147180L748.217080,620.147180C749.289709,620.147195,750.296067,619.628263,750.918079,618.754402C751.540092,617.880540,751.700890,616.759741,751.349650,615.746250L744.462740,595.849760C743.999934,594.514568,742.742206,593.619041,741.329080,593.618530Z" transform="matrix(1 0 0 1 -203.50000000000000 -174.13399999999999)" fill="rgb(47,46,65)" stroke="none" stroke-width="1"/><polygon id="ePFyEuAQkYd10" points="720.046000,337.135000 720.046000,341.556000 264.306000,341.556000 264.649000,341.004000 264.649000,337.135000 720.046000,337.135000" fill="rgb(47,46,65)" stroke="none" stroke-width="1"/><g id="ePFyEuAQkYd11"><circle id="ePFyEuAQkYd12" r="77.375200" transform="matrix(1 0 0 1 709.94630107000023 83.23428000000001)" fill="rgb(108,99,255)" stroke="none" stroke-width="1"/><path id="ePFyEuAQkYd13" d="M942.890000,285.223000L878.779110,285.223000C876.338213,285.220586,874.360079,283.242447,874.357670,280.801550L874.357670,242.113910C874.360271,239.673094,876.338294,237.695071,878.779110,237.692470L942.890000,237.692470C945.330816,237.695071,947.308839,239.673094,947.311440,242.113910L947.311440,280.801520C947.309048,283.242429,945.330909,285.220586,942.890000,285.223000ZM878.779090,242.113940L878.779090,280.801550L942.893240,280.801550L942.890000,242.113910Z" transform="matrix(1 0 0 1 -200.88825392999968 -166.61091957999997)" fill="rgb(255,255,255)" stroke="none" stroke-width="1"/><path id="ePFyEuAQkYd14" d="M930.731050,242.113910L890.938050,242.113910L890.938050,224.428140C890.938050,211.618270,899.305970,202.320930,910.834540,202.320930C922.363110,202.320930,930.731020,211.618270,930.731020,224.428140ZM895.359520,237.692470L926.309610,237.692470L926.309610,224.428140C926.309610,214.015140,919.946230,206.742380,910.834610,206.742380C901.722990,206.742380,895.359560,214.015190,895.359560,224.428140Z" transform="matrix(1.00038569552480 0 0 1 -200.33555392999961 -166.61112958000001)" fill="rgb(255,255,255)" stroke="none" stroke-width="1"/><circle id="ePFyEuAQkYd15" r="4.421440" transform="matrix(1 0 0 1 709.94674607000036 93.74118042000002)" fill="rgb(255,255,255)" stroke="none" stroke-width="1"/></g><path id="ePFyEuAQkYd16" d="M856.819940,421.283720L538.180060,421.283720C534.922762,421.279896,532.283154,418.640288,532.279330,415.382990L532.279330,336.342000C532.283160,333.084706,534.922766,330.445104,538.180060,330.441280L856.819940,330.441280C860.077234,330.445104,862.716840,333.084706,862.720670,336.342000L862.720670,415.383000C862.716840,418.640294,860.077234,421.279896,856.819940,421.283720ZM538.180060,332.801620C536.225619,332.803753,534.641763,334.387609,534.639630,336.342050L534.639630,415.383000C534.641763,417.337443,536.225617,418.921302,538.180060,418.923440L856.819940,418.923440C858.774383,418.921302,860.358237,417.337443,860.360370,415.383000L860.360370,336.342000C860.358237,334.387559,858.774381,332.803703,856.819940,332.801570Z" transform="matrix(1 0 0 1 -203.50000000000000 -174.13399999999999)" fill="rgb(230,230,230)" stroke="none" stroke-width="1"/><circle id="ePFyEuAQkYd17" r="24.036400" transform="matrix(1 0 0 1 384.19000000000000 198.69499999999999)" fill="rgb(230,230,230)" stroke="none" stroke-width="1"/><path id="ePFyEuAQkYd18" d="M639.616151,356.805410C639.464200,356.803146,639.323689,357.566204,639.247644,358.806618C639.171599,360.047032,639.171599,361.575938,639.247644,362.816352C639.323689,364.056766,639.464200,364.819824,639.616151,364.817560L659.645683,364.817560C659.880331,364.817560,660.070552,363.023979,660.070552,360.811485C660.070552,358.598991,659.880331,356.805410,659.645683,356.805410Z" transform="matrix(1 0 0 1 -203.50000000000000 -174.13399999999999)" fill="rgb(230,230,230)" stroke="none" stroke-width="1"/><path id="ePFyEuAQkYd19" d="M640.094341,380.841860C639.773719,380.841860,639.477451,381.605413,639.317140,382.844895C639.156828,384.084377,639.156828,385.611483,639.317140,386.850965C639.477451,388.090447,639.773719,388.854000,640.094341,388.854000L658.299458,388.854000C658.620081,388.854000,658.916348,388.090447,659.076660,386.850965C659.236971,385.611483,659.236971,384.084377,659.076660,382.844895C658.916348,381.605413,658.620081,380.841860,658.299458,380.841860Z" transform="matrix(1 0 0 1 -203.50000000000000 -174.13399999999999)" fill="rgb(230,230,230)" stroke="none" stroke-width="1"/><path id="ePFyEuAQkYd20" d="M467.022000,382.462410L408.118900,413.778000L407.373290,387.681710C426.598820,384.472230,444.889980,378.884310,461.802700,369.787110L467.963200,354.567030C469.328870,351.193020,472.371324,348.788252,475.969530,348.238792C479.567737,347.689332,483.189232,349.076490,485.499630,351.889150L485.499630,351.889150C488.947613,356.086699,488.550355,362.238756,484.591160,365.958000Z" transform="matrix(1 0 0 1 -203.50000000000000 -174.13399999999999)" fill="rgb(255,184,184)" stroke="none" stroke-width="1"/><path id="ePFyEuAQkYd21" d="M323.098190,563.267070L323.098190,563.267070C322.229018,560.079386,322.763682,556.672198,324.567470,553.903960L337.506780,534.046190C343.846870,524.316126,356.526883,520.970838,366.841780,526.306920L366.841780,526.306920C361.403780,535.563390,362.161840,543.683710,368.719840,550.740570C358.539308,555.710511,349.130119,562.125061,340.783780,569.785490C337.692236,571.893072,333.772546,572.376111,330.261816,571.082153C326.751086,569.788195,324.082460,566.876885,323.098190,563.267070Z" transform="matrix(1 0 0 1 -203.50000000000000 -174.13399999999999)" fill="rgb(47,46,65)" stroke="none" stroke-width="1"/><path id="ePFyEuAQkYd22" d="M469.704750,537.302740L469.704750,537.302740C465.722959,543.939065,458.572894,548.023205,450.833900,548.081830L364.873630,548.733050L361.145630,527.110410L399.171630,515.926280L367.110470,491.321210L402.154000,450.312770L465.804000,509.637080C473.470621,516.782627,475.096778,528.315975,469.704750,537.302740Z" transform="matrix(1 0 0 1 -202.50004000000001 -171.86475399999998)" fill="rgb(47,46,65)" stroke="none" stroke-width="1"/><path id="ePFyEuAQkYd23" d="M351.452660,685.179390L331.321240,685.179390C313.246150,561.281670,294.847410,437.037530,349.215840,390.664100L413.338150,401.102620L405.136460,455.532000L369.347260,496.540450Z" transform="matrix(1 0 0 1 -203.50000000000000 -174.13399999999999)" fill="rgb(47,46,65)" stroke="none" stroke-width="1"/><path id="ePFyEuAQkYd24" d="M369.149170,713.245940L369.149170,713.245940C365.961535,714.115296,362.554316,713.580833,359.785970,711.777210L337.927430,708.839070C328.197011,702.499557,324.850977,689.819763,330.186430,679.504560L330.186430,679.504560C339.443230,684.942050,347.563500,684.183470,354.619970,677.625060C359.605900,687.692440,367.820900,687.078370,375.666540,695.560000C377.774295,698.651416,378.257560,702.571068,376.963811,706.081866C375.670062,709.592663,372.758917,712.261456,369.149170,713.245940Z" transform="matrix(1 0 0 1 -203.50000000000000 -174.13399999999999)" fill="rgb(47,46,65)" stroke="none" stroke-width="1"/><path id="ePFyEuAQkYd25" d="M399.171600,307.901580L361.891180,298.954270C368.082860,286.280370,368.592730,272.178090,365.619180,257.200210L390.969860,256.454600C391.764210,275.080000,394.167320,292.480810,399.171600,307.901580Z" transform="matrix(1 0 0 1 -203.50000000000000 -174.13399999999999)" fill="rgb(255,184,184)" stroke="none" stroke-width="1"/><path id="ePFyEuAQkYd26" d="M409.417520,423.552430C382.278790,442.045510,363.103340,424.185150,348.470230,396.628970C350.503610,379.767090,347.211230,359.588360,341.113510,337.662620C335.491793,317.614901,346.133204,296.597011,365.619180,289.261380L365.619180,289.261380L397.680340,302.682380C424.903960,324.872760,430.262340,348.909380,420.048590,374.260780Z" transform="matrix(1 0 0 1 -203.50000000000000 -174.13399999999999)" fill="rgb(108,99,255)" stroke="none" stroke-width="1"/><g id="ePFyEuAQkYd27_tr" transform="translate(-203.500000,-174.134000) rotate(0.008114)"><path id="ePFyEuAQkYd27" d="M331.321240,326.541780L301.496900,342.199560L354.435100,373.515110L361.801100,391.684620C362.794690,394.135470,362.737408,396.886948,361.642677,399.294323C360.547946,401.701697,358.511980,403.553387,356.011850,404.415500L356.011850,404.415500C353.161125,405.398510,350.014612,404.990455,347.508936,403.312799C345.003259,401.635144,343.427332,398.881327,343.250260,395.871080L342.505370,383.208010L275.221570,361.004350C270.628157,359.488523,266.987327,355.944011,265.348920,351.392880L265.348920,351.392880C262.924925,344.659605,265.350428,337.138711,271.251540,333.090300L325.356390,295.971850Z" transform="translate(0,0)" fill="rgb(255,184,184)" stroke="none" stroke-width="1"/></g><path id="ePFyEuAQkYd28" d="M361.145570,329.524220C348.706960,324.073120,337.396230,329.994660,323.119570,334.743480L320.882740,295.226230C335.058860,287.670550,348.574830,285.633420,361.145590,291.498230Z" transform="matrix(1 0 0 1 -203.50000000000000 -174.13399999999999)" fill="rgb(108,99,255)" stroke="none" stroke-width="1"/><circle id="ePFyEuAQkYd29" r="23.802100" transform="matrix(1 0 0 1 172.52500000000001 78.09250000000000)" fill="rgb(255,184,184)" stroke="none" stroke-width="1"/><path id="ePFyEuAQkYd30" d="M404.500000,249.223530C380.933840,251.531640,362.976620,247.677470,351.500000,236.703460L351.500000,227.865760L402.500000,227.865760Z" transform="matrix(1 0 0 1 -203.50000000000000 -174.13399999999999)" fill="rgb(47,46,65)" stroke="none" stroke-width="1"/></svg>